<svg width="547" height="369" viewBox="0 0 547 369" fill="none" xmlns="http://www.w3.org/2000/svg">
<g clip-path="url(#clip0_44_2002)">
<g clip-path="url(#clip1_44_2002)">
<circle cx="14.6118" cy="3.30464" r="1.5" transform="rotate(0.495937 14.6118 3.30464)" fill="#D2D6DB"/>
<circle cx="37.6109" cy="3.50372" r="1.5" transform="rotate(0.495937 37.6109 3.50372)" fill="#D2D6DB"/>
<circle cx="60.6101" cy="3.7028" r="1.5" transform="rotate(0.495937 60.6101 3.7028)" fill="#D2D6DB"/>
<circle cx="83.6092" cy="3.90188" r="1.5" transform="rotate(0.495937 83.6092 3.90188)" fill="#D2D6DB"/>
<circle cx="106.608" cy="4.10096" r="1.5" transform="rotate(0.495937 106.608 4.10096)" fill="#D2D6DB"/>
<circle cx="129.607" cy="4.30004" r="1.5" transform="rotate(0.495937 129.607 4.30004)" fill="#D2D6DB"/>
<circle cx="152.607" cy="4.49912" r="1.5" transform="rotate(0.495937 152.607 4.49912)" fill="#D2D6DB"/>
<circle cx="175.606" cy="4.6982" r="1.5" transform="rotate(0.495937 175.606 4.6982)" fill="#D2D6DB"/>
<circle cx="198.605" cy="4.89728" r="1.5" transform="rotate(0.495937 198.605 4.89728)" fill="#D2D6DB"/>
<circle cx="221.604" cy="5.09635" r="1.5" transform="rotate(0.495937 221.604 5.09635)" fill="#D2D6DB"/>
<circle cx="244.603" cy="5.29544" r="1.5" transform="rotate(0.495937 244.603 5.29544)" fill="#D2D6DB"/>
<circle cx="267.602" cy="5.49452" r="1.5" transform="rotate(0.495937 267.602 5.49452)" fill="#D2D6DB"/>
<circle cx="290.601" cy="5.6936" r="1.5" transform="rotate(0.495937 290.601 5.6936)" fill="#D2D6DB"/>
<circle cx="313.601" cy="5.89267" r="1.5" transform="rotate(0.495937 313.601 5.89267)" fill="#D2D6DB"/>
<circle cx="336.6" cy="6.09175" r="1.5" transform="rotate(0.495937 336.6 6.09175)" fill="#D2D6DB"/>
<circle cx="359.599" cy="6.29084" r="1.5" transform="rotate(0.495937 359.599 6.29084)" fill="#D2D6DB"/>
<circle cx="382.598" cy="6.48992" r="1.5" transform="rotate(0.495937 382.598 6.48992)" fill="#D2D6DB"/>
<circle cx="405.597" cy="6.68899" r="1.5" transform="rotate(0.495937 405.597 6.68899)" fill="#D2D6DB"/>
<circle cx="428.596" cy="6.88807" r="1.5" transform="rotate(0.495937 428.596 6.88807)" fill="#D2D6DB"/>
<circle cx="451.595" cy="7.08715" r="1.5" transform="rotate(0.495937 451.595 7.08715)" fill="#D2D6DB"/>
<circle cx="474.595" cy="7.28623" r="1.5" transform="rotate(0.495937 474.595 7.28623)" fill="#D2D6DB"/>
<circle cx="497.594" cy="7.48531" r="1.5" transform="rotate(0.495937 497.594 7.48531)" fill="#D2D6DB"/>
<circle cx="520.593" cy="7.68439" r="1.5" transform="rotate(0.495937 520.593 7.68439)" fill="#D2D6DB"/>
<circle cx="543.592" cy="7.88347" r="1.5" transform="rotate(0.495937 543.592 7.88347)" fill="#D2D6DB"/>
</g>
<g clip-path="url(#clip2_44_2002)">
<circle cx="14.4127" cy="26.3038" r="1.5" transform="rotate(0.495937 14.4127 26.3038)" fill="#D2D6DB"/>
<circle cx="37.4118" cy="26.5029" r="1.5" transform="rotate(0.495937 37.4118 26.5029)" fill="#D2D6DB"/>
<circle cx="60.411" cy="26.7019" r="1.5" transform="rotate(0.495937 60.411 26.7019)" fill="#D2D6DB"/>
<circle cx="83.4101" cy="26.901" r="1.5" transform="rotate(0.495937 83.4101 26.901)" fill="#D2D6DB"/>
<circle cx="106.409" cy="27.1001" r="1.5" transform="rotate(0.495937 106.409 27.1001)" fill="#D2D6DB"/>
<circle cx="129.408" cy="27.2992" r="1.5" transform="rotate(0.495937 129.408 27.2992)" fill="#D2D6DB"/>
<circle cx="152.407" cy="27.4983" r="1.5" transform="rotate(0.495937 152.407 27.4983)" fill="#D2D6DB"/>
<circle cx="175.407" cy="27.6973" r="1.5" transform="rotate(0.495937 175.407 27.6973)" fill="#D2D6DB"/>
<circle cx="198.406" cy="27.8964" r="1.5" transform="rotate(0.495937 198.406 27.8964)" fill="#D2D6DB"/>
<circle cx="221.405" cy="28.0955" r="1.5" transform="rotate(0.495937 221.405 28.0955)" fill="#D2D6DB"/>
<circle cx="244.404" cy="28.2946" r="1.5" transform="rotate(0.495937 244.404 28.2946)" fill="#D2D6DB"/>
<circle cx="267.403" cy="28.4937" r="1.5" transform="rotate(0.495937 267.403 28.4937)" fill="#D2D6DB"/>
<circle cx="290.402" cy="28.6927" r="1.5" transform="rotate(0.495937 290.402 28.6927)" fill="#D2D6DB"/>
<circle cx="313.401" cy="28.8918" r="1.5" transform="rotate(0.495937 313.401 28.8918)" fill="#D2D6DB"/>
<circle cx="336.401" cy="29.0909" r="1.5" transform="rotate(0.495937 336.401 29.0909)" fill="#D2D6DB"/>
<circle cx="359.4" cy="29.29" r="1.5" transform="rotate(0.495937 359.4 29.29)" fill="#D2D6DB"/>
<circle cx="382.399" cy="29.4891" r="1.5" transform="rotate(0.495937 382.399 29.4891)" fill="#D2D6DB"/>
<circle cx="405.398" cy="29.6881" r="1.5" transform="rotate(0.495937 405.398 29.6881)" fill="#D2D6DB"/>
<circle cx="428.397" cy="29.8872" r="1.5" transform="rotate(0.495937 428.397 29.8872)" fill="#D2D6DB"/>
<circle cx="451.396" cy="30.0863" r="1.5" transform="rotate(0.495937 451.396 30.0863)" fill="#D2D6DB"/>
<circle cx="474.395" cy="30.2854" r="1.5" transform="rotate(0.495937 474.395 30.2854)" fill="#D2D6DB"/>
<circle cx="497.395" cy="30.4844" r="1.5" transform="rotate(0.495937 497.395 30.4844)" fill="#D2D6DB"/>
<circle cx="520.394" cy="30.6835" r="1.5" transform="rotate(0.495937 520.394 30.6835)" fill="#D2D6DB"/>
<circle cx="543.393" cy="30.8826" r="1.5" transform="rotate(0.495937 543.393 30.8826)" fill="#D2D6DB"/>
</g>
<g clip-path="url(#clip3_44_2002)">
<circle cx="14.2136" cy="49.3029" r="1.5" transform="rotate(0.495937 14.2136 49.3029)" fill="#D2D6DB"/>
<circle cx="37.2128" cy="49.502" r="1.5" transform="rotate(0.495937 37.2128 49.502)" fill="#D2D6DB"/>
<circle cx="60.2119" cy="49.7011" r="1.5" transform="rotate(0.495937 60.2119 49.7011)" fill="#D2D6DB"/>
<circle cx="83.211" cy="49.9002" r="1.5" transform="rotate(0.495937 83.211 49.9002)" fill="#D2D6DB"/>
<circle cx="106.21" cy="50.0992" r="1.5" transform="rotate(0.495937 106.21 50.0992)" fill="#D2D6DB"/>
<circle cx="129.209" cy="50.2983" r="1.5" transform="rotate(0.495937 129.209 50.2983)" fill="#D2D6DB"/>
<circle cx="152.208" cy="50.4974" r="1.5" transform="rotate(0.495937 152.208 50.4974)" fill="#D2D6DB"/>
<circle cx="175.208" cy="50.6965" r="1.5" transform="rotate(0.495937 175.208 50.6965)" fill="#D2D6DB"/>
<circle cx="198.207" cy="50.8956" r="1.5" transform="rotate(0.495937 198.207 50.8956)" fill="#D2D6DB"/>
<circle cx="221.206" cy="51.0946" r="1.5" transform="rotate(0.495937 221.206 51.0946)" fill="#D2D6DB"/>
<circle cx="244.205" cy="51.2937" r="1.5" transform="rotate(0.495937 244.205 51.2937)" fill="#D2D6DB"/>
<circle cx="267.204" cy="51.4928" r="1.5" transform="rotate(0.495937 267.204 51.4928)" fill="#D2D6DB"/>
<circle cx="290.203" cy="51.6919" r="1.5" transform="rotate(0.495937 290.203 51.6919)" fill="#D2D6DB"/>
<circle cx="313.202" cy="51.8909" r="1.5" transform="rotate(0.495937 313.202 51.8909)" fill="#D2D6DB"/>
<circle cx="336.202" cy="52.09" r="1.5" transform="rotate(0.495937 336.202 52.09)" fill="#D2D6DB"/>
<circle cx="359.201" cy="52.2891" r="1.5" transform="rotate(0.495937 359.201 52.2891)" fill="#D2D6DB"/>
<circle cx="382.2" cy="52.4882" r="1.5" transform="rotate(0.495937 382.2 52.4882)" fill="#D2D6DB"/>
<circle cx="405.199" cy="52.6873" r="1.5" transform="rotate(0.495937 405.199 52.6873)" fill="#D2D6DB"/>
<circle cx="428.198" cy="52.8864" r="1.5" transform="rotate(0.495937 428.198 52.8864)" fill="#D2D6DB"/>
<circle cx="451.197" cy="53.0854" r="1.5" transform="rotate(0.495937 451.197 53.0854)" fill="#D2D6DB"/>
<circle cx="474.196" cy="53.2845" r="1.5" transform="rotate(0.495937 474.196 53.2845)" fill="#D2D6DB"/>
<circle cx="497.196" cy="53.4836" r="1.5" transform="rotate(0.495937 497.196 53.4836)" fill="#D2D6DB"/>
<circle cx="520.195" cy="53.6827" r="1.5" transform="rotate(0.495937 520.195 53.6827)" fill="#D2D6DB"/>
<circle cx="543.194" cy="53.8817" r="1.5" transform="rotate(0.495937 543.194 53.8817)" fill="#D2D6DB"/>
</g>
<g clip-path="url(#clip4_44_2002)">
<circle cx="14.0145" cy="72.302" r="1.5" transform="rotate(0.495937 14.0145 72.302)" fill="#D2D6DB"/>
<circle cx="37.0137" cy="72.5011" r="1.5" transform="rotate(0.495937 37.0137 72.5011)" fill="#D2D6DB"/>
<circle cx="60.0128" cy="72.7002" r="1.5" transform="rotate(0.495937 60.0128 72.7002)" fill="#D2D6DB"/>
<circle cx="83.0119" cy="72.8993" r="1.5" transform="rotate(0.495937 83.0119 72.8993)" fill="#D2D6DB"/>
<circle cx="106.011" cy="73.0984" r="1.5" transform="rotate(0.495937 106.011 73.0984)" fill="#D2D6DB"/>
<circle cx="129.01" cy="73.2974" r="1.5" transform="rotate(0.495937 129.01 73.2974)" fill="#D2D6DB"/>
<circle cx="152.009" cy="73.4965" r="1.5" transform="rotate(0.495937 152.009 73.4965)" fill="#D2D6DB"/>
<circle cx="175.008" cy="73.6956" r="1.5" transform="rotate(0.495937 175.008 73.6956)" fill="#D2D6DB"/>
<circle cx="198.008" cy="73.8947" r="1.5" transform="rotate(0.495937 198.008 73.8947)" fill="#D2D6DB"/>
<circle cx="221.007" cy="74.0938" r="1.5" transform="rotate(0.495937 221.007 74.0938)" fill="#D2D6DB"/>
<circle cx="244.006" cy="74.2928" r="1.5" transform="rotate(0.495937 244.006 74.2928)" fill="#D2D6DB"/>
<circle cx="267.005" cy="74.4919" r="1.5" transform="rotate(0.495937 267.005 74.4919)" fill="#D2D6DB"/>
<circle cx="290.004" cy="74.691" r="1.5" transform="rotate(0.495937 290.004 74.691)" fill="#D2D6DB"/>
<circle cx="313.003" cy="74.8901" r="1.5" transform="rotate(0.495937 313.003 74.8901)" fill="#D2D6DB"/>
<circle cx="336.002" cy="75.0892" r="1.5" transform="rotate(0.495937 336.002 75.0892)" fill="#D2D6DB"/>
<circle cx="359.002" cy="75.2882" r="1.5" transform="rotate(0.495937 359.002 75.2882)" fill="#D2D6DB"/>
<circle cx="382.001" cy="75.4873" r="1.5" transform="rotate(0.495937 382.001 75.4873)" fill="#D2D6DB"/>
<circle cx="405" cy="75.6864" r="1.5" transform="rotate(0.495937 405 75.6864)" fill="#D2D6DB"/>
<circle cx="427.999" cy="75.8855" r="1.5" transform="rotate(0.495937 427.999 75.8855)" fill="#D2D6DB"/>
<circle cx="450.998" cy="76.0845" r="1.5" transform="rotate(0.495937 450.998 76.0845)" fill="#D2D6DB"/>
<circle cx="473.997" cy="76.2836" r="1.5" transform="rotate(0.495937 473.997 76.2836)" fill="#D2D6DB"/>
<circle cx="496.996" cy="76.4827" r="1.5" transform="rotate(0.495937 496.996 76.4827)" fill="#D2D6DB"/>
<circle cx="519.996" cy="76.6818" r="1.5" transform="rotate(0.495937 519.996 76.6818)" fill="#D2D6DB"/>
<circle cx="542.995" cy="76.8809" r="1.5" transform="rotate(0.495937 542.995 76.8809)" fill="#D2D6DB"/>
</g>
<g clip-path="url(#clip5_44_2002)">
<circle cx="13.8155" cy="95.3012" r="1.5" transform="rotate(0.495937 13.8155 95.3012)" fill="#D2D6DB"/>
<circle cx="36.8146" cy="95.5003" r="1.5" transform="rotate(0.495937 36.8146 95.5003)" fill="#D2D6DB"/>
<circle cx="59.8137" cy="95.6994" r="1.5" transform="rotate(0.495937 59.8137 95.6994)" fill="#D2D6DB"/>
<circle cx="82.8128" cy="95.8984" r="1.5" transform="rotate(0.495937 82.8128 95.8984)" fill="#D2D6DB"/>
<circle cx="105.812" cy="96.0975" r="1.5" transform="rotate(0.495937 105.812 96.0975)" fill="#D2D6DB"/>
<circle cx="128.811" cy="96.2966" r="1.5" transform="rotate(0.495937 128.811 96.2966)" fill="#D2D6DB"/>
<circle cx="151.81" cy="96.4957" r="1.5" transform="rotate(0.495937 151.81 96.4957)" fill="#D2D6DB"/>
<circle cx="174.809" cy="96.6947" r="1.5" transform="rotate(0.495937 174.809 96.6947)" fill="#D2D6DB"/>
<circle cx="197.809" cy="96.8938" r="1.5" transform="rotate(0.495937 197.809 96.8938)" fill="#D2D6DB"/>
<circle cx="220.808" cy="97.0929" r="1.5" transform="rotate(0.495937 220.808 97.0929)" fill="#D2D6DB"/>
<circle cx="243.807" cy="97.292" r="1.5" transform="rotate(0.495937 243.807 97.292)" fill="#D2D6DB"/>
<circle cx="266.806" cy="97.4911" r="1.5" transform="rotate(0.495937 266.806 97.4911)" fill="#D2D6DB"/>
<circle cx="289.805" cy="97.6901" r="1.5" transform="rotate(0.495937 289.805 97.6901)" fill="#D2D6DB"/>
<circle cx="312.804" cy="97.8892" r="1.5" transform="rotate(0.495937 312.804 97.8892)" fill="#D2D6DB"/>
<circle cx="335.803" cy="98.0883" r="1.5" transform="rotate(0.495937 335.803 98.0883)" fill="#D2D6DB"/>
<circle cx="358.803" cy="98.2874" r="1.5" transform="rotate(0.495937 358.803 98.2874)" fill="#D2D6DB"/>
<circle cx="381.802" cy="98.4865" r="1.5" transform="rotate(0.495937 381.802 98.4865)" fill="#D2D6DB"/>
<circle cx="404.801" cy="98.6855" r="1.5" transform="rotate(0.495937 404.801 98.6855)" fill="#D2D6DB"/>
<circle cx="427.8" cy="98.8846" r="1.5" transform="rotate(0.495937 427.8 98.8846)" fill="#D2D6DB"/>
<circle cx="450.799" cy="99.0837" r="1.5" transform="rotate(0.495937 450.799 99.0837)" fill="#D2D6DB"/>
<circle cx="473.798" cy="99.2828" r="1.5" transform="rotate(0.495937 473.798 99.2828)" fill="#D2D6DB"/>
<circle cx="496.797" cy="99.4819" r="1.5" transform="rotate(0.495937 496.797 99.4819)" fill="#D2D6DB"/>
<circle cx="519.796" cy="99.6809" r="1.5" transform="rotate(0.495937 519.796 99.6809)" fill="#D2D6DB"/>
<circle cx="542.796" cy="99.88" r="1.5" transform="rotate(0.495937 542.796 99.88)" fill="#D2D6DB"/>
</g>
<g clip-path="url(#clip6_44_2002)">
<circle cx="13.6164" cy="118.3" r="1.5" transform="rotate(0.495937 13.6164 118.3)" fill="#D2D6DB"/>
<circle cx="36.6155" cy="118.499" r="1.5" transform="rotate(0.495937 36.6155 118.499)" fill="#D2D6DB"/>
<circle cx="59.6146" cy="118.698" r="1.5" transform="rotate(0.495937 59.6146 118.698)" fill="#D2D6DB"/>
<circle cx="82.6137" cy="118.898" r="1.5" transform="rotate(0.495937 82.6137 118.898)" fill="#D2D6DB"/>
<circle cx="105.613" cy="119.097" r="1.5" transform="rotate(0.495937 105.613 119.097)" fill="#D2D6DB"/>
<circle cx="128.612" cy="119.296" r="1.5" transform="rotate(0.495937 128.612 119.296)" fill="#D2D6DB"/>
<circle cx="151.611" cy="119.495" r="1.5" transform="rotate(0.495937 151.611 119.495)" fill="#D2D6DB"/>
<circle cx="174.61" cy="119.694" r="1.5" transform="rotate(0.495937 174.61 119.694)" fill="#D2D6DB"/>
<circle cx="197.609" cy="119.893" r="1.5" transform="rotate(0.495937 197.609 119.893)" fill="#D2D6DB"/>
<circle cx="220.609" cy="120.092" r="1.5" transform="rotate(0.495937 220.609 120.092)" fill="#D2D6DB"/>
<circle cx="243.608" cy="120.291" r="1.5" transform="rotate(0.495937 243.608 120.291)" fill="#D2D6DB"/>
<circle cx="266.607" cy="120.49" r="1.5" transform="rotate(0.495937 266.607 120.49)" fill="#D2D6DB"/>
<circle cx="289.606" cy="120.689" r="1.5" transform="rotate(0.495937 289.606 120.689)" fill="#D2D6DB"/>
<circle cx="312.605" cy="120.888" r="1.5" transform="rotate(0.495937 312.605 120.888)" fill="#D2D6DB"/>
<circle cx="335.604" cy="121.087" r="1.5" transform="rotate(0.495937 335.604 121.087)" fill="#D2D6DB"/>
<circle cx="358.603" cy="121.287" r="1.5" transform="rotate(0.495937 358.603 121.287)" fill="#D2D6DB"/>
<circle cx="381.603" cy="121.486" r="1.5" transform="rotate(0.495937 381.603 121.486)" fill="#D2D6DB"/>
<circle cx="404.602" cy="121.685" r="1.5" transform="rotate(0.495937 404.602 121.685)" fill="#D2D6DB"/>
<circle cx="427.601" cy="121.884" r="1.5" transform="rotate(0.495937 427.601 121.884)" fill="#D2D6DB"/>
<circle cx="450.6" cy="122.083" r="1.5" transform="rotate(0.495937 450.6 122.083)" fill="#D2D6DB"/>
<circle cx="473.599" cy="122.282" r="1.5" transform="rotate(0.495937 473.599 122.282)" fill="#D2D6DB"/>
<circle cx="496.598" cy="122.481" r="1.5" transform="rotate(0.495937 496.598 122.481)" fill="#D2D6DB"/>
<circle cx="519.597" cy="122.68" r="1.5" transform="rotate(0.495937 519.597 122.68)" fill="#D2D6DB"/>
<circle cx="542.596" cy="122.879" r="1.5" transform="rotate(0.495937 542.596 122.879)" fill="#D2D6DB"/>
</g>
<g clip-path="url(#clip7_44_2002)">
<circle cx="13.4173" cy="141.299" r="1.5" transform="rotate(0.495937 13.4173 141.299)" fill="#D2D6DB"/>
<circle cx="36.4165" cy="141.499" r="1.5" transform="rotate(0.495937 36.4165 141.499)" fill="#D2D6DB"/>
<circle cx="59.4156" cy="141.698" r="1.5" transform="rotate(0.495937 59.4156 141.698)" fill="#D2D6DB"/>
<circle cx="82.4147" cy="141.897" r="1.5" transform="rotate(0.495937 82.4147 141.897)" fill="#D2D6DB"/>
<circle cx="105.414" cy="142.096" r="1.5" transform="rotate(0.495937 105.414 142.096)" fill="#D2D6DB"/>
<circle cx="128.413" cy="142.295" r="1.5" transform="rotate(0.495937 128.413 142.295)" fill="#D2D6DB"/>
<circle cx="151.412" cy="142.494" r="1.5" transform="rotate(0.495937 151.412 142.494)" fill="#D2D6DB"/>
<circle cx="174.411" cy="142.693" r="1.5" transform="rotate(0.495937 174.411 142.693)" fill="#D2D6DB"/>
<circle cx="197.41" cy="142.892" r="1.5" transform="rotate(0.495937 197.41 142.892)" fill="#D2D6DB"/>
<circle cx="220.41" cy="143.091" r="1.5" transform="rotate(0.495937 220.41 143.091)" fill="#D2D6DB"/>
<circle cx="243.409" cy="143.29" r="1.5" transform="rotate(0.495937 243.409 143.29)" fill="#D2D6DB"/>
<circle cx="266.408" cy="143.489" r="1.5" transform="rotate(0.495937 266.408 143.489)" fill="#D2D6DB"/>
<circle cx="289.407" cy="143.688" r="1.5" transform="rotate(0.495937 289.407 143.688)" fill="#D2D6DB"/>
<circle cx="312.406" cy="143.887" r="1.5" transform="rotate(0.495937 312.406 143.887)" fill="#D2D6DB"/>
<circle cx="335.405" cy="144.087" r="1.5" transform="rotate(0.495937 335.405 144.087)" fill="#D2D6DB"/>
<circle cx="358.404" cy="144.286" r="1.5" transform="rotate(0.495937 358.404 144.286)" fill="#D2D6DB"/>
<circle cx="381.404" cy="144.485" r="1.5" transform="rotate(0.495937 381.404 144.485)" fill="#D2D6DB"/>
<circle cx="404.403" cy="144.684" r="1.5" transform="rotate(0.495937 404.403 144.684)" fill="#D2D6DB"/>
<circle cx="427.402" cy="144.883" r="1.5" transform="rotate(0.495937 427.402 144.883)" fill="#D2D6DB"/>
<circle cx="450.401" cy="145.082" r="1.5" transform="rotate(0.495937 450.401 145.082)" fill="#D2D6DB"/>
<circle cx="473.4" cy="145.281" r="1.5" transform="rotate(0.495937 473.4 145.281)" fill="#D2D6DB"/>
<circle cx="496.399" cy="145.48" r="1.5" transform="rotate(0.495937 496.399 145.48)" fill="#D2D6DB"/>
<circle cx="519.398" cy="145.679" r="1.5" transform="rotate(0.495937 519.398 145.679)" fill="#D2D6DB"/>
<circle cx="542.397" cy="145.878" r="1.5" transform="rotate(0.495937 542.397 145.878)" fill="#D2D6DB"/>
</g>
<g clip-path="url(#clip8_44_2002)">
<circle cx="13.2182" cy="164.299" r="1.5" transform="rotate(0.495937 13.2182 164.299)" fill="#D2D6DB"/>
<circle cx="36.2174" cy="164.498" r="1.5" transform="rotate(0.495937 36.2174 164.498)" fill="#D2D6DB"/>
<circle cx="59.2165" cy="164.697" r="1.5" transform="rotate(0.495937 59.2165 164.697)" fill="#D2D6DB"/>
<circle cx="82.2156" cy="164.896" r="1.5" transform="rotate(0.495937 82.2156 164.896)" fill="#D2D6DB"/>
<circle cx="105.215" cy="165.095" r="1.5" transform="rotate(0.495937 105.215 165.095)" fill="#D2D6DB"/>
<circle cx="128.214" cy="165.294" r="1.5" transform="rotate(0.495937 128.214 165.294)" fill="#D2D6DB"/>
<circle cx="151.213" cy="165.493" r="1.5" transform="rotate(0.495937 151.213 165.493)" fill="#D2D6DB"/>
<circle cx="174.212" cy="165.692" r="1.5" transform="rotate(0.495937 174.212 165.692)" fill="#D2D6DB"/>
<circle cx="197.211" cy="165.891" r="1.5" transform="rotate(0.495937 197.211 165.891)" fill="#D2D6DB"/>
<circle cx="220.21" cy="166.09" r="1.5" transform="rotate(0.495937 220.21 166.09)" fill="#D2D6DB"/>
<circle cx="243.21" cy="166.289" r="1.5" transform="rotate(0.495937 243.21 166.289)" fill="#D2D6DB"/>
<circle cx="266.209" cy="166.488" r="1.5" transform="rotate(0.495937 266.209 166.488)" fill="#D2D6DB"/>
<circle cx="289.208" cy="166.688" r="1.5" transform="rotate(0.495937 289.208 166.688)" fill="#D2D6DB"/>
<circle cx="312.207" cy="166.887" r="1.5" transform="rotate(0.495937 312.207 166.887)" fill="#D2D6DB"/>
<circle cx="335.206" cy="167.086" r="1.5" transform="rotate(0.495937 335.206 167.086)" fill="#D2D6DB"/>
<circle cx="358.205" cy="167.285" r="1.5" transform="rotate(0.495937 358.205 167.285)" fill="#D2D6DB"/>
<circle cx="381.204" cy="167.484" r="1.5" transform="rotate(0.495937 381.204 167.484)" fill="#D2D6DB"/>
<circle cx="404.204" cy="167.683" r="1.5" transform="rotate(0.495937 404.204 167.683)" fill="#D2D6DB"/>
<circle cx="427.203" cy="167.882" r="1.5" transform="rotate(0.495937 427.203 167.882)" fill="#D2D6DB"/>
<circle cx="450.202" cy="168.081" r="1.5" transform="rotate(0.495937 450.202 168.081)" fill="#D2D6DB"/>
<circle cx="473.201" cy="168.28" r="1.5" transform="rotate(0.495937 473.201 168.28)" fill="#D2D6DB"/>
<circle cx="496.2" cy="168.479" r="1.5" transform="rotate(0.495937 496.2 168.479)" fill="#D2D6DB"/>
<circle cx="519.199" cy="168.678" r="1.5" transform="rotate(0.495937 519.199 168.678)" fill="#D2D6DB"/>
<circle cx="542.198" cy="168.877" r="1.5" transform="rotate(0.495937 542.198 168.877)" fill="#D2D6DB"/>
</g>
<g clip-path="url(#clip9_44_2002)">
<circle cx="13.0191" cy="187.298" r="1.5" transform="rotate(0.495937 13.0191 187.298)" fill="#D2D6DB"/>
<circle cx="36.0183" cy="187.497" r="1.5" transform="rotate(0.495937 36.0183 187.497)" fill="#D2D6DB"/>
<circle cx="59.0174" cy="187.696" r="1.5" transform="rotate(0.495937 59.0174 187.696)" fill="#D2D6DB"/>
<circle cx="82.0165" cy="187.895" r="1.5" transform="rotate(0.495937 82.0165 187.895)" fill="#D2D6DB"/>
<circle cx="105.016" cy="188.094" r="1.5" transform="rotate(0.495937 105.016 188.094)" fill="#D2D6DB"/>
<circle cx="128.015" cy="188.293" r="1.5" transform="rotate(0.495937 128.015 188.293)" fill="#D2D6DB"/>
<circle cx="151.014" cy="188.492" r="1.5" transform="rotate(0.495937 151.014 188.492)" fill="#D2D6DB"/>
<circle cx="174.013" cy="188.691" r="1.5" transform="rotate(0.495937 174.013 188.691)" fill="#D2D6DB"/>
<circle cx="197.012" cy="188.89" r="1.5" transform="rotate(0.495937 197.012 188.89)" fill="#D2D6DB"/>
<circle cx="220.011" cy="189.089" r="1.5" transform="rotate(0.495937 220.011 189.089)" fill="#D2D6DB"/>
<circle cx="243.01" cy="189.289" r="1.5" transform="rotate(0.495937 243.01 189.289)" fill="#D2D6DB"/>
<circle cx="266.01" cy="189.488" r="1.5" transform="rotate(0.495937 266.01 189.488)" fill="#D2D6DB"/>
<circle cx="289.009" cy="189.687" r="1.5" transform="rotate(0.495937 289.009 189.687)" fill="#D2D6DB"/>
<circle cx="312.008" cy="189.886" r="1.5" transform="rotate(0.495937 312.008 189.886)" fill="#D2D6DB"/>
<circle cx="335.007" cy="190.085" r="1.5" transform="rotate(0.495937 335.007 190.085)" fill="#D2D6DB"/>
<circle cx="358.006" cy="190.284" r="1.5" transform="rotate(0.495937 358.006 190.284)" fill="#D2D6DB"/>
<circle cx="381.005" cy="190.483" r="1.5" transform="rotate(0.495937 381.005 190.483)" fill="#D2D6DB"/>
<circle cx="404.004" cy="190.682" r="1.5" transform="rotate(0.495937 404.004 190.682)" fill="#D2D6DB"/>
<circle cx="427.004" cy="190.881" r="1.5" transform="rotate(0.495937 427.004 190.881)" fill="#D2D6DB"/>
<circle cx="450.003" cy="191.08" r="1.5" transform="rotate(0.495937 450.003 191.08)" fill="#D2D6DB"/>
<circle cx="473.002" cy="191.279" r="1.5" transform="rotate(0.495937 473.002 191.279)" fill="#D2D6DB"/>
<circle cx="496.001" cy="191.478" r="1.5" transform="rotate(0.495937 496.001 191.478)" fill="#D2D6DB"/>
<circle cx="519" cy="191.678" r="1.5" transform="rotate(0.495937 519 191.678)" fill="#D2D6DB"/>
<circle cx="541.999" cy="191.877" r="1.5" transform="rotate(0.495937 541.999 191.877)" fill="#D2D6DB"/>
</g>
<g clip-path="url(#clip10_44_2002)">
<circle cx="12.8201" cy="210.297" r="1.5" transform="rotate(0.495937 12.8201 210.297)" fill="#D2D6DB"/>
<circle cx="35.8192" cy="210.496" r="1.5" transform="rotate(0.495937 35.8192 210.496)" fill="#D2D6DB"/>
<circle cx="58.8184" cy="210.695" r="1.5" transform="rotate(0.495937 58.8184 210.695)" fill="#D2D6DB"/>
<circle cx="81.8175" cy="210.894" r="1.5" transform="rotate(0.495937 81.8175 210.894)" fill="#D2D6DB"/>
<circle cx="104.817" cy="211.093" r="1.5" transform="rotate(0.495937 104.817 211.093)" fill="#D2D6DB"/>
<circle cx="127.816" cy="211.292" r="1.5" transform="rotate(0.495937 127.816 211.292)" fill="#D2D6DB"/>
<circle cx="150.815" cy="211.491" r="1.5" transform="rotate(0.495937 150.815 211.491)" fill="#D2D6DB"/>
<circle cx="173.814" cy="211.69" r="1.5" transform="rotate(0.495937 173.814 211.69)" fill="#D2D6DB"/>
<circle cx="196.813" cy="211.89" r="1.5" transform="rotate(0.495937 196.813 211.89)" fill="#D2D6DB"/>
<circle cx="219.812" cy="212.089" r="1.5" transform="rotate(0.495937 219.812 212.089)" fill="#D2D6DB"/>
<circle cx="242.811" cy="212.288" r="1.5" transform="rotate(0.495937 242.811 212.288)" fill="#D2D6DB"/>
<circle cx="265.811" cy="212.487" r="1.5" transform="rotate(0.495937 265.811 212.487)" fill="#D2D6DB"/>
<circle cx="288.81" cy="212.686" r="1.5" transform="rotate(0.495937 288.81 212.686)" fill="#D2D6DB"/>
<circle cx="311.809" cy="212.885" r="1.5" transform="rotate(0.495937 311.809 212.885)" fill="#D2D6DB"/>
<circle cx="334.808" cy="213.084" r="1.5" transform="rotate(0.495937 334.808 213.084)" fill="#D2D6DB"/>
<circle cx="357.807" cy="213.283" r="1.5" transform="rotate(0.495937 357.807 213.283)" fill="#D2D6DB"/>
<circle cx="380.806" cy="213.482" r="1.5" transform="rotate(0.495937 380.806 213.482)" fill="#D2D6DB"/>
<circle cx="403.805" cy="213.681" r="1.5" transform="rotate(0.495937 403.805 213.681)" fill="#D2D6DB"/>
<circle cx="426.805" cy="213.88" r="1.5" transform="rotate(0.495937 426.805 213.88)" fill="#D2D6DB"/>
<circle cx="449.804" cy="214.079" r="1.5" transform="rotate(0.495937 449.804 214.079)" fill="#D2D6DB"/>
<circle cx="472.803" cy="214.278" r="1.5" transform="rotate(0.495937 472.803 214.278)" fill="#D2D6DB"/>
<circle cx="495.802" cy="214.478" r="1.5" transform="rotate(0.495937 495.802 214.478)" fill="#D2D6DB"/>
<circle cx="518.801" cy="214.677" r="1.5" transform="rotate(0.495937 518.801 214.677)" fill="#D2D6DB"/>
<circle cx="541.8" cy="214.876" r="1.5" transform="rotate(0.495937 541.8 214.876)" fill="#D2D6DB"/>
</g>
<g clip-path="url(#clip11_44_2002)">
<circle cx="12.621" cy="233.296" r="1.5" transform="rotate(0.495937 12.621 233.296)" fill="#D2D6DB"/>
<circle cx="35.6201" cy="233.495" r="1.5" transform="rotate(0.495937 35.6201 233.495)" fill="#D2D6DB"/>
<circle cx="58.6193" cy="233.694" r="1.5" transform="rotate(0.495937 58.6193 233.694)" fill="#D2D6DB"/>
<circle cx="81.6184" cy="233.893" r="1.5" transform="rotate(0.495937 81.6184 233.893)" fill="#D2D6DB"/>
<circle cx="104.618" cy="234.092" r="1.5" transform="rotate(0.495937 104.618 234.092)" fill="#D2D6DB"/>
<circle cx="127.617" cy="234.291" r="1.5" transform="rotate(0.495937 127.617 234.291)" fill="#D2D6DB"/>
<circle cx="150.616" cy="234.49" r="1.5" transform="rotate(0.495937 150.616 234.49)" fill="#D2D6DB"/>
<circle cx="173.615" cy="234.69" r="1.5" transform="rotate(0.495937 173.615 234.69)" fill="#D2D6DB"/>
<circle cx="196.614" cy="234.889" r="1.5" transform="rotate(0.495937 196.614 234.889)" fill="#D2D6DB"/>
<circle cx="219.613" cy="235.088" r="1.5" transform="rotate(0.495937 219.613 235.088)" fill="#D2D6DB"/>
<circle cx="242.612" cy="235.287" r="1.5" transform="rotate(0.495937 242.612 235.287)" fill="#D2D6DB"/>
<circle cx="265.612" cy="235.486" r="1.5" transform="rotate(0.495937 265.612 235.486)" fill="#D2D6DB"/>
<circle cx="288.611" cy="235.685" r="1.5" transform="rotate(0.495937 288.611 235.685)" fill="#D2D6DB"/>
<circle cx="311.61" cy="235.884" r="1.5" transform="rotate(0.495937 311.61 235.884)" fill="#D2D6DB"/>
<circle cx="334.609" cy="236.083" r="1.5" transform="rotate(0.495937 334.609 236.083)" fill="#D2D6DB"/>
<circle cx="357.608" cy="236.282" r="1.5" transform="rotate(0.495937 357.608 236.282)" fill="#D2D6DB"/>
<circle cx="380.607" cy="236.481" r="1.5" transform="rotate(0.495937 380.607 236.481)" fill="#D2D6DB"/>
<circle cx="403.606" cy="236.68" r="1.5" transform="rotate(0.495937 403.606 236.68)" fill="#D2D6DB"/>
<circle cx="426.605" cy="236.879" r="1.5" transform="rotate(0.495937 426.605 236.879)" fill="#D2D6DB"/>
<circle cx="449.605" cy="237.079" r="1.5" transform="rotate(0.495937 449.605 237.079)" fill="#D2D6DB"/>
<circle cx="472.604" cy="237.278" r="1.5" transform="rotate(0.495937 472.604 237.278)" fill="#D2D6DB"/>
<circle cx="495.603" cy="237.477" r="1.5" transform="rotate(0.495937 495.603 237.477)" fill="#D2D6DB"/>
<circle cx="518.602" cy="237.676" r="1.5" transform="rotate(0.495937 518.602 237.676)" fill="#D2D6DB"/>
<circle cx="541.601" cy="237.875" r="1.5" transform="rotate(0.495937 541.601 237.875)" fill="#D2D6DB"/>
</g>
<g clip-path="url(#clip12_44_2002)">
<circle cx="12.4219" cy="256.295" r="1.5" transform="rotate(0.495937 12.4219 256.295)" fill="#D2D6DB"/>
<circle cx="35.421" cy="256.494" r="1.5" transform="rotate(0.495937 35.421 256.494)" fill="#D2D6DB"/>
<circle cx="58.4202" cy="256.693" r="1.5" transform="rotate(0.495937 58.4202 256.693)" fill="#D2D6DB"/>
<circle cx="81.4193" cy="256.892" r="1.5" transform="rotate(0.495937 81.4193 256.892)" fill="#D2D6DB"/>
<circle cx="104.418" cy="257.091" r="1.5" transform="rotate(0.495937 104.418 257.091)" fill="#D2D6DB"/>
<circle cx="127.418" cy="257.291" r="1.5" transform="rotate(0.495937 127.418 257.291)" fill="#D2D6DB"/>
<circle cx="150.417" cy="257.49" r="1.5" transform="rotate(0.495937 150.417 257.49)" fill="#D2D6DB"/>
<circle cx="173.416" cy="257.689" r="1.5" transform="rotate(0.495937 173.416 257.689)" fill="#D2D6DB"/>
<circle cx="196.415" cy="257.888" r="1.5" transform="rotate(0.495937 196.415 257.888)" fill="#D2D6DB"/>
<circle cx="219.414" cy="258.087" r="1.5" transform="rotate(0.495937 219.414 258.087)" fill="#D2D6DB"/>
<circle cx="242.413" cy="258.286" r="1.5" transform="rotate(0.495937 242.413 258.286)" fill="#D2D6DB"/>
<circle cx="265.412" cy="258.485" r="1.5" transform="rotate(0.495937 265.412 258.485)" fill="#D2D6DB"/>
<circle cx="288.412" cy="258.684" r="1.5" transform="rotate(0.495937 288.412 258.684)" fill="#D2D6DB"/>
<circle cx="311.411" cy="258.883" r="1.5" transform="rotate(0.495937 311.411 258.883)" fill="#D2D6DB"/>
<circle cx="334.41" cy="259.082" r="1.5" transform="rotate(0.495937 334.41 259.082)" fill="#D2D6DB"/>
<circle cx="357.409" cy="259.281" r="1.5" transform="rotate(0.495937 357.409 259.281)" fill="#D2D6DB"/>
<circle cx="380.408" cy="259.48" r="1.5" transform="rotate(0.495937 380.408 259.48)" fill="#D2D6DB"/>
<circle cx="403.407" cy="259.68" r="1.5" transform="rotate(0.495937 403.407 259.68)" fill="#D2D6DB"/>
<circle cx="426.406" cy="259.879" r="1.5" transform="rotate(0.495937 426.406 259.879)" fill="#D2D6DB"/>
<circle cx="449.406" cy="260.078" r="1.5" transform="rotate(0.495937 449.406 260.078)" fill="#D2D6DB"/>
<circle cx="472.405" cy="260.277" r="1.5" transform="rotate(0.495937 472.405 260.277)" fill="#D2D6DB"/>
<circle cx="495.404" cy="260.476" r="1.5" transform="rotate(0.495937 495.404 260.476)" fill="#D2D6DB"/>
<circle cx="518.403" cy="260.675" r="1.5" transform="rotate(0.495937 518.403 260.675)" fill="#D2D6DB"/>
<circle cx="541.402" cy="260.874" r="1.5" transform="rotate(0.495937 541.402 260.874)" fill="#D2D6DB"/>
</g>
<g clip-path="url(#clip13_44_2002)">
<circle cx="12.2228" cy="279.294" r="1.5" transform="rotate(0.495937 12.2228 279.294)" fill="#D2D6DB"/>
<circle cx="35.2219" cy="279.493" r="1.5" transform="rotate(0.495937 35.2219 279.493)" fill="#D2D6DB"/>
<circle cx="58.2211" cy="279.692" r="1.5" transform="rotate(0.495937 58.2211 279.692)" fill="#D2D6DB"/>
<circle cx="81.2202" cy="279.892" r="1.5" transform="rotate(0.495937 81.2202 279.892)" fill="#D2D6DB"/>
<circle cx="104.219" cy="280.091" r="1.5" transform="rotate(0.495937 104.219 280.091)" fill="#D2D6DB"/>
<circle cx="127.218" cy="280.29" r="1.5" transform="rotate(0.495937 127.218 280.29)" fill="#D2D6DB"/>
<circle cx="150.218" cy="280.489" r="1.5" transform="rotate(0.495937 150.218 280.489)" fill="#D2D6DB"/>
<circle cx="173.217" cy="280.688" r="1.5" transform="rotate(0.495937 173.217 280.688)" fill="#D2D6DB"/>
<circle cx="196.216" cy="280.887" r="1.5" transform="rotate(0.495937 196.216 280.887)" fill="#D2D6DB"/>
<circle cx="219.215" cy="281.086" r="1.5" transform="rotate(0.495937 219.215 281.086)" fill="#D2D6DB"/>
<circle cx="242.214" cy="281.285" r="1.5" transform="rotate(0.495937 242.214 281.285)" fill="#D2D6DB"/>
<circle cx="265.213" cy="281.484" r="1.5" transform="rotate(0.495937 265.213 281.484)" fill="#D2D6DB"/>
<circle cx="288.212" cy="281.683" r="1.5" transform="rotate(0.495937 288.212 281.683)" fill="#D2D6DB"/>
<circle cx="311.212" cy="281.882" r="1.5" transform="rotate(0.495937 311.212 281.882)" fill="#D2D6DB"/>
<circle cx="334.211" cy="282.081" r="1.5" transform="rotate(0.495937 334.211 282.081)" fill="#D2D6DB"/>
<circle cx="357.21" cy="282.28" r="1.5" transform="rotate(0.495937 357.21 282.28)" fill="#D2D6DB"/>
<circle cx="380.209" cy="282.48" r="1.5" transform="rotate(0.495937 380.209 282.48)" fill="#D2D6DB"/>
<circle cx="403.208" cy="282.679" r="1.5" transform="rotate(0.495937 403.208 282.679)" fill="#D2D6DB"/>
<circle cx="426.207" cy="282.878" r="1.5" transform="rotate(0.495937 426.207 282.878)" fill="#D2D6DB"/>
<circle cx="449.206" cy="283.077" r="1.5" transform="rotate(0.495937 449.206 283.077)" fill="#D2D6DB"/>
<circle cx="472.206" cy="283.276" r="1.5" transform="rotate(0.495937 472.206 283.276)" fill="#D2D6DB"/>
<circle cx="495.205" cy="283.475" r="1.5" transform="rotate(0.495937 495.205 283.475)" fill="#D2D6DB"/>
<circle cx="518.204" cy="283.674" r="1.5" transform="rotate(0.495937 518.204 283.674)" fill="#D2D6DB"/>
<circle cx="541.203" cy="283.873" r="1.5" transform="rotate(0.495937 541.203 283.873)" fill="#D2D6DB"/>
</g>
<g clip-path="url(#clip14_44_2002)">
<circle cx="12.0238" cy="302.293" r="1.5" transform="rotate(0.495937 12.0238 302.293)" fill="#D2D6DB"/>
<circle cx="35.0229" cy="302.493" r="1.5" transform="rotate(0.495937 35.0229 302.493)" fill="#D2D6DB"/>
<circle cx="58.0221" cy="302.692" r="1.5" transform="rotate(0.495937 58.0221 302.692)" fill="#D2D6DB"/>
<circle cx="81.0211" cy="302.891" r="1.5" transform="rotate(0.495937 81.0211 302.891)" fill="#D2D6DB"/>
<circle cx="104.02" cy="303.09" r="1.5" transform="rotate(0.495937 104.02 303.09)" fill="#D2D6DB"/>
<circle cx="127.019" cy="303.289" r="1.5" transform="rotate(0.495937 127.019 303.289)" fill="#D2D6DB"/>
<circle cx="150.019" cy="303.488" r="1.5" transform="rotate(0.495937 150.019 303.488)" fill="#D2D6DB"/>
<circle cx="173.018" cy="303.687" r="1.5" transform="rotate(0.495937 173.018 303.687)" fill="#D2D6DB"/>
<circle cx="196.017" cy="303.886" r="1.5" transform="rotate(0.495937 196.017 303.886)" fill="#D2D6DB"/>
<circle cx="219.016" cy="304.085" r="1.5" transform="rotate(0.495937 219.016 304.085)" fill="#D2D6DB"/>
<circle cx="242.015" cy="304.284" r="1.5" transform="rotate(0.495937 242.015 304.284)" fill="#D2D6DB"/>
<circle cx="265.014" cy="304.483" r="1.5" transform="rotate(0.495937 265.014 304.483)" fill="#D2D6DB"/>
<circle cx="288.013" cy="304.682" r="1.5" transform="rotate(0.495937 288.013 304.682)" fill="#D2D6DB"/>
<circle cx="311.013" cy="304.882" r="1.5" transform="rotate(0.495937 311.013 304.882)" fill="#D2D6DB"/>
<circle cx="334.012" cy="305.081" r="1.5" transform="rotate(0.495937 334.012 305.081)" fill="#D2D6DB"/>
<circle cx="357.011" cy="305.28" r="1.5" transform="rotate(0.495937 357.011 305.28)" fill="#D2D6DB"/>
<circle cx="380.01" cy="305.479" r="1.5" transform="rotate(0.495937 380.01 305.479)" fill="#D2D6DB"/>
<circle cx="403.009" cy="305.678" r="1.5" transform="rotate(0.495937 403.009 305.678)" fill="#D2D6DB"/>
<circle cx="426.008" cy="305.877" r="1.5" transform="rotate(0.495937 426.008 305.877)" fill="#D2D6DB"/>
<circle cx="449.007" cy="306.076" r="1.5" transform="rotate(0.495937 449.007 306.076)" fill="#D2D6DB"/>
<circle cx="472.007" cy="306.275" r="1.5" transform="rotate(0.495937 472.007 306.275)" fill="#D2D6DB"/>
<circle cx="495.006" cy="306.474" r="1.5" transform="rotate(0.495937 495.006 306.474)" fill="#D2D6DB"/>
<circle cx="518.005" cy="306.673" r="1.5" transform="rotate(0.495937 518.005 306.673)" fill="#D2D6DB"/>
<circle cx="541.004" cy="306.872" r="1.5" transform="rotate(0.495937 541.004 306.872)" fill="#D2D6DB"/>
</g>
<g clip-path="url(#clip15_44_2002)">
<circle cx="11.8247" cy="325.293" r="1.5" transform="rotate(0.495937 11.8247 325.293)" fill="#D2D6DB"/>
<circle cx="34.8238" cy="325.492" r="1.5" transform="rotate(0.495937 34.8238 325.492)" fill="#D2D6DB"/>
<circle cx="57.823" cy="325.691" r="1.5" transform="rotate(0.495937 57.823 325.691)" fill="#D2D6DB"/>
<circle cx="80.822" cy="325.89" r="1.5" transform="rotate(0.495937 80.822 325.89)" fill="#D2D6DB"/>
<circle cx="103.821" cy="326.089" r="1.5" transform="rotate(0.495937 103.821 326.089)" fill="#D2D6DB"/>
<circle cx="126.82" cy="326.288" r="1.5" transform="rotate(0.495937 126.82 326.288)" fill="#D2D6DB"/>
<circle cx="149.819" cy="326.487" r="1.5" transform="rotate(0.495937 149.819 326.487)" fill="#D2D6DB"/>
<circle cx="172.819" cy="326.686" r="1.5" transform="rotate(0.495937 172.819 326.686)" fill="#D2D6DB"/>
<circle cx="195.818" cy="326.885" r="1.5" transform="rotate(0.495937 195.818 326.885)" fill="#D2D6DB"/>
<circle cx="218.817" cy="327.084" r="1.5" transform="rotate(0.495937 218.817 327.084)" fill="#D2D6DB"/>
<circle cx="241.816" cy="327.283" r="1.5" transform="rotate(0.495937 241.816 327.283)" fill="#D2D6DB"/>
<circle cx="264.815" cy="327.482" r="1.5" transform="rotate(0.495937 264.815 327.482)" fill="#D2D6DB"/>
<circle cx="287.814" cy="327.682" r="1.5" transform="rotate(0.495937 287.814 327.682)" fill="#D2D6DB"/>
<circle cx="310.813" cy="327.881" r="1.5" transform="rotate(0.495937 310.813 327.881)" fill="#D2D6DB"/>
<circle cx="333.813" cy="328.08" r="1.5" transform="rotate(0.495937 333.813 328.08)" fill="#D2D6DB"/>
<circle cx="356.812" cy="328.279" r="1.5" transform="rotate(0.495937 356.812 328.279)" fill="#D2D6DB"/>
<circle cx="379.811" cy="328.478" r="1.5" transform="rotate(0.495937 379.811 328.478)" fill="#D2D6DB"/>
<circle cx="402.81" cy="328.677" r="1.5" transform="rotate(0.495937 402.81 328.677)" fill="#D2D6DB"/>
<circle cx="425.809" cy="328.876" r="1.5" transform="rotate(0.495937 425.809 328.876)" fill="#D2D6DB"/>
<circle cx="448.808" cy="329.075" r="1.5" transform="rotate(0.495937 448.808 329.075)" fill="#D2D6DB"/>
<circle cx="471.807" cy="329.274" r="1.5" transform="rotate(0.495937 471.807 329.274)" fill="#D2D6DB"/>
<circle cx="494.807" cy="329.473" r="1.5" transform="rotate(0.495937 494.807 329.473)" fill="#D2D6DB"/>
<circle cx="517.806" cy="329.672" r="1.5" transform="rotate(0.495937 517.806 329.672)" fill="#D2D6DB"/>
<circle cx="540.805" cy="329.871" r="1.5" transform="rotate(0.495937 540.805 329.871)" fill="#D2D6DB"/>
</g>
<g clip-path="url(#clip16_44_2002)">
<circle cx="11.6256" cy="348.292" r="1.5" transform="rotate(0.495937 11.6256 348.292)" fill="#D2D6DB"/>
<circle cx="34.6247" cy="348.491" r="1.5" transform="rotate(0.495937 34.6247 348.491)" fill="#D2D6DB"/>
<circle cx="57.6239" cy="348.69" r="1.5" transform="rotate(0.495937 57.6239 348.69)" fill="#D2D6DB"/>
<circle cx="80.6229" cy="348.889" r="1.5" transform="rotate(0.495937 80.6229 348.889)" fill="#D2D6DB"/>
<circle cx="103.622" cy="349.088" r="1.5" transform="rotate(0.495937 103.622 349.088)" fill="#D2D6DB"/>
<circle cx="126.621" cy="349.287" r="1.5" transform="rotate(0.495937 126.621 349.287)" fill="#D2D6DB"/>
<circle cx="149.62" cy="349.486" r="1.5" transform="rotate(0.495937 149.62 349.486)" fill="#D2D6DB"/>
<circle cx="172.62" cy="349.685" r="1.5" transform="rotate(0.495937 172.62 349.685)" fill="#D2D6DB"/>
<circle cx="195.619" cy="349.884" r="1.5" transform="rotate(0.495937 195.619 349.884)" fill="#D2D6DB"/>
<circle cx="218.618" cy="350.083" r="1.5" transform="rotate(0.495937 218.618 350.083)" fill="#D2D6DB"/>
<circle cx="241.617" cy="350.283" r="1.5" transform="rotate(0.495937 241.617 350.283)" fill="#D2D6DB"/>
<circle cx="264.616" cy="350.482" r="1.5" transform="rotate(0.495937 264.616 350.482)" fill="#D2D6DB"/>
<circle cx="287.615" cy="350.681" r="1.5" transform="rotate(0.495937 287.615 350.681)" fill="#D2D6DB"/>
<circle cx="310.614" cy="350.88" r="1.5" transform="rotate(0.495937 310.614 350.88)" fill="#D2D6DB"/>
<circle cx="333.613" cy="351.079" r="1.5" transform="rotate(0.495937 333.613 351.079)" fill="#D2D6DB"/>
<circle cx="356.613" cy="351.278" r="1.5" transform="rotate(0.495937 356.613 351.278)" fill="#D2D6DB"/>
<circle cx="379.612" cy="351.477" r="1.5" transform="rotate(0.495937 379.612 351.477)" fill="#D2D6DB"/>
<circle cx="402.611" cy="351.676" r="1.5" transform="rotate(0.495937 402.611 351.676)" fill="#D2D6DB"/>
<circle cx="425.61" cy="351.875" r="1.5" transform="rotate(0.495937 425.61 351.875)" fill="#D2D6DB"/>
<circle cx="448.609" cy="352.074" r="1.5" transform="rotate(0.495937 448.609 352.074)" fill="#D2D6DB"/>
<circle cx="471.608" cy="352.273" r="1.5" transform="rotate(0.495937 471.608 352.273)" fill="#D2D6DB"/>
<circle cx="494.607" cy="352.472" r="1.5" transform="rotate(0.495937 494.607 352.472)" fill="#D2D6DB"/>
<circle cx="517.607" cy="352.671" r="1.5" transform="rotate(0.495937 517.607 352.671)" fill="#D2D6DB"/>
<circle cx="540.606" cy="352.871" r="1.5" transform="rotate(0.495937 540.606 352.871)" fill="#D2D6DB"/>
</g>
<g clip-path="url(#clip17_44_2002)">
</g>
</g>
<defs>
<clipPath id="clip0_44_2002">
<rect width="740.583" height="361.909" fill="white" transform="translate(-193.867) rotate(0.495937)"/>
</clipPath>
<clipPath id="clip1_44_2002">
<rect width="1000" height="23" fill="white" transform="translate(-193.867) rotate(0.495937)"/>
</clipPath>
<clipPath id="clip2_44_2002">
<rect width="1000" height="23" fill="white" transform="translate(-194.067 22.9991) rotate(0.495937)"/>
</clipPath>
<clipPath id="clip3_44_2002">
<rect width="1000" height="23" fill="white" transform="translate(-194.266 45.9983) rotate(0.495937)"/>
</clipPath>
<clipPath id="clip4_44_2002">
<rect width="1000" height="23" fill="white" transform="translate(-194.465 68.9974) rotate(0.495937)"/>
</clipPath>
<clipPath id="clip5_44_2002">
<rect width="1000" height="23" fill="white" transform="translate(-194.664 91.9966) rotate(0.495937)"/>
</clipPath>
<clipPath id="clip6_44_2002">
<rect width="1000" height="23" fill="white" transform="translate(-194.863 114.996) rotate(0.495937)"/>
</clipPath>
<clipPath id="clip7_44_2002">
<rect width="1000" height="23" fill="white" transform="translate(-195.062 137.995) rotate(0.495937)"/>
</clipPath>
<clipPath id="clip8_44_2002">
<rect width="1000" height="23" fill="white" transform="translate(-195.261 160.994) rotate(0.495937)"/>
</clipPath>
<clipPath id="clip9_44_2002">
<rect width="1000" height="23" fill="white" transform="translate(-195.46 183.993) rotate(0.495937)"/>
</clipPath>
<clipPath id="clip10_44_2002">
<rect width="1000" height="23" fill="white" transform="translate(-195.659 206.992) rotate(0.495937)"/>
</clipPath>
<clipPath id="clip11_44_2002">
<rect width="1000" height="23" fill="white" transform="translate(-195.858 229.991) rotate(0.495937)"/>
</clipPath>
<clipPath id="clip12_44_2002">
<rect width="1000" height="23" fill="white" transform="translate(-196.057 252.991) rotate(0.495937)"/>
</clipPath>
<clipPath id="clip13_44_2002">
<rect width="1000" height="23" fill="white" transform="translate(-196.256 275.99) rotate(0.495937)"/>
</clipPath>
<clipPath id="clip14_44_2002">
<rect width="1000" height="23" fill="white" transform="translate(-196.455 298.989) rotate(0.495937)"/>
</clipPath>
<clipPath id="clip15_44_2002">
<rect width="1000" height="23" fill="white" transform="translate(-196.655 321.988) rotate(0.495937)"/>
</clipPath>
<clipPath id="clip16_44_2002">
<rect width="1000" height="23" fill="white" transform="translate(-196.854 344.987) rotate(0.495937)"/>
</clipPath>
<clipPath id="clip17_44_2002">
<rect width="1000" height="23" fill="white" transform="translate(-197.053 367.986) rotate(0.495937)"/>
</clipPath>
</defs>
</svg>
