<svg width="84" height="84" viewBox="0 0 84 84" fill="none" xmlns="http://www.w3.org/2000/svg">
<path d="M42 0.333374C18.9896 0.333374 0.333344 19.2817 0.333344 42.6525C0.333344 62.4825 13.7778 79.0751 31.9028 83.6667C31.7083 83.0954 31.5833 82.4324 31.5833 81.6107V74.3777C29.8924 74.3777 27.059 74.3777 26.3472 74.3777C23.4965 74.3777 20.9618 73.1328 19.7326 70.8193C18.3681 68.2485 18.132 64.3163 14.75 61.9112C13.7465 61.1106 14.5104 60.1972 15.6667 60.3207C17.8021 60.9343 19.5729 62.4225 21.2396 64.6302C22.8993 66.8413 23.6806 67.3421 26.7813 67.3421C28.2847 67.3421 30.5347 67.254 32.6528 66.9154C33.7917 63.9778 35.7604 61.2729 38.1667 59.9962C24.2917 58.5468 17.6701 51.5359 17.6701 42.0177C17.6701 37.9198 19.3889 33.9559 22.309 30.6162C21.3507 27.3012 20.1458 20.5407 22.6771 17.9663C28.9201 17.9663 32.6945 22.0783 33.6007 23.1892C36.7118 22.1065 40.1285 21.4929 43.7188 21.4929C47.316 21.4929 50.7465 22.1065 53.8646 23.1963C54.7604 22.0924 58.5382 17.9663 64.7952 17.9663C67.3368 20.5443 66.1181 27.333 65.1493 30.6409C68.0521 33.9735 69.7604 37.9268 69.7604 42.0177C69.7604 51.5289 63.1493 58.5362 49.2952 59.9927C53.1077 62.0134 55.8889 67.6913 55.8889 71.969V81.6107C55.8889 81.9775 55.809 82.242 55.7674 82.5558C72.0035 76.7757 83.6667 61.1177 83.6667 42.6525C83.6667 19.2817 65.0104 0.333374 42 0.333374Z" fill="#0D1117"/>
</svg>
