<svg width="84" height="84" viewBox="0 0 84 84" fill="none" xmlns="http://www.w3.org/2000/svg">
<path d="M76.2576 0.333374H8.07576C3.89015 0.333374 0.5 3.72353 0.5 7.90913V76.091C0.5 80.2766 3.89015 83.6667 8.07576 83.6667H76.2576C80.4432 83.6667 83.8333 80.2766 83.8333 76.091V7.90913C83.8333 3.72353 80.4432 0.333374 76.2576 0.333374ZM26.8409 68.5152H15.6667V32.5606H26.8409V68.5152ZM21.1402 27.4205C17.5379 27.4205 14.625 24.5 14.625 20.9053C14.625 17.3106 17.5417 14.394 21.1402 14.394C24.7311 14.394 27.6515 17.3144 27.6515 20.9053C27.6515 24.5 24.7311 27.4205 21.1402 27.4205ZM68.697 68.5152H57.5303V51.0303C57.5303 46.8599 57.4546 41.4963 51.7235 41.4963C45.9091 41.4963 45.0152 46.0379 45.0152 50.7273V68.5152H33.8485V32.5606H44.5682V37.4735H44.7197C46.2121 34.6478 49.8561 31.6667 55.2917 31.6667C66.6061 31.6667 68.697 39.1137 68.697 48.7955V68.5152Z" fill="#0D1117"/>
</svg>
